<svg role="img" viewBox="0 0 24 24" xmlns="http://www.w3.org/2000/svg" id="Owasp--Streamline-Simple-Icons" height="24" width="24">
  <desc>
    Owasp Streamline Icon: https://streamlinehq.com
  </desc>
  <title>OWASP</title>
  <path d="M15.897 20.503c-0.384 0 -1.782 -2.489 -1.97 -3.198 -0.393 -1.486 -0.308 -2.114 -0.285 -2.314 0.072 -0.613 0.667 -0.92 0.703 -1.748 0.01 -0.256 0.14 -1.535 0.243 -2.534a1.723 1.723 0 0 1 -0.733 -0.343c0.676 0.908 -0.32 1.995 -1.767 3.443 -1.536 1.536 -4.945 2.961 -4.945 2.961s1.425 -3.41 2.961 -4.945c1.13 -1.129 2.04 -1.983 2.816 -1.983 0.22 0 0.427 0.067 0.627 0.216a1.722 1.722 0 0 1 -0.343 -0.733c-0.999 0.103 -2.278 0.232 -2.534 0.244 -0.829 0.036 -1.135 0.63 -1.747 0.702 -0.07 0.008 -0.194 0.024 -0.388 0.024 -0.36 0 -0.963 -0.054 -1.926 -0.31 -0.772 -0.203 -3.648 -1.84 -3.14 -2.045 0.26 -0.105 1.087 -0.176 2.175 -0.176 1.047 0 2.337 0.066 3.596 0.23 1.57 0.205 3.01 0.463 3.992 0.656 0.016 -0.053 0.035 -0.104 0.058 -0.154l-1.004 -0.48s-0.8 -0.92 -0.715 -0.984a0.02 0.02 0 0 1 0.012 -0.003c0.126 0 0.767 0.733 0.829 0.816l0.605 0.202 -0.284 -0.249s-0.388 -1.438 -0.287 -1.472h0.004c0.106 0 0.459 1.25 0.489 1.34 0.07 0.06 0.303 0.152 0.596 0.32l-0.308 -0.79s0.14 -1.305 0.243 -1.305h0.003c0.105 0.021 -0.02 1.089 -0.047 1.221l0.51 0.783a1.31 1.31 0 0 1 0.463 -0.082c0.184 0 0.374 0.036 0.558 0.107 -0.236 -0.502 -0.218 -1.025 0.095 -1.338a0.84 0.84 0 0 1 0.353 -0.209 0.462 0.462 0 0 1 0.457 -0.383c0.127 0 0.254 0.05 0.352 0.148a0.497 0.497 0 0 1 0.147 0.335c0.151 -0.311 0.329 -0.73 0.317 -0.867 -0.03 -0.307 -0.386 -0.852 -0.39 -0.857a0.076 0.076 0 0 1 0.064 -0.119c0.025 0 0.05 0.012 0.064 0.035 0.016 0.023 0.381 0.582 0.414 0.927 0.018 0.198 -0.21 0.696 -0.333 0.95a2.227 2.227 0 0 1 0.873 0.874c0.245 -0.12 0.715 -0.334 0.927 -0.334l0.024 0.001c0.345 0.033 0.904 0.399 0.927 0.414a0.076 0.076 0 0 1 -0.084 0.128c-0.005 -0.004 -0.55 -0.36 -0.857 -0.39h-0.015c-0.15 0 -0.552 0.171 -0.852 0.317 0.12 0.004 0.242 0.053 0.335 0.147a0.482 0.482 0 0 1 0.012 0.681 0.459 0.459 0 0 1 -0.247 0.128 0.845 0.845 0 0 1 -0.21 0.354 0.924 0.924 0 0 1 -0.67 0.255c-0.212 0 -0.441 -0.055 -0.667 -0.16 0.132 0.343 0.142 0.708 0.025 1.02l0.783 0.51c0.095 -0.019 0.666 -0.088 0.993 -0.088 0.13 0 0.222 0.011 0.228 0.04 0.02 0.106 -1.305 0.247 -1.305 0.247l-0.79 -0.308c0.168 0.293 0.26 0.527 0.32 0.596 0.091 0.03 1.374 0.392 1.34 0.493 -0.004 0.012 -0.026 0.017 -0.063 0.017 -0.283 0 -1.41 -0.304 -1.41 -0.304l-0.248 -0.284 0.202 0.605c0.087 0.065 0.876 0.755 0.813 0.841 -0.004 0.005 -0.009 0.007 -0.016 0.007 -0.139 0 -0.967 -0.722 -0.967 -0.722l-0.481 -1.004a1.18 1.18 0 0 1 -0.154 0.058c0.193 0.982 0.451 2.422 0.656 3.992 0.335 2.569 0.26 5.261 0.054 5.77 -0.016 0.041 -0.042 0.06 -0.076 0.06M12 24C5.373 24 0 18.627 0 12S5.373 0 12 0s12 5.373 12 12 -5.373 12 -12 12m0 -22.153C6.393 1.847 1.847 6.393 1.847 12S6.393 22.153 12 22.153 22.153 17.607 22.153 12 17.607 1.847 12 1.847Z" fill="#000000" stroke-width="1"></path>
</svg>