<svg xmlns="http://www.w3.org/2000/svg" xmlns:xlink="http://www.w3.org/1999/xlink" width="26px" height="26px" viewBox="0 0 26 26" version="1.1">
<g id="surface1">

<path style=" stroke:none;fill-rule:nonzero;fill:rgb(2.352941%,2.352941%,2.352941%);fill-opacity:1;" d="M 12.121094 1.824219 C 12.703125 1.824219 13.28125 1.824219 13.878906 1.824219 C 13.878906 5.269531 13.878906 8.714844 13.878906 12.261719 C 14.457031 12.261719 15.039062 12.261719 15.636719 12.261719 C 15.636719 8.933594 15.636719 5.601562 15.636719 2.175781 C 16.726562 2.445312 17.707031 2.808594 18.710938 3.304688 C 18.710938 3.363281 18.710938 3.417969 18.710938 3.476562 C 18.785156 3.5 18.859375 3.519531 18.9375 3.539062 C 19.269531 3.664062 19.519531 3.835938 19.789062 4.054688 C 19.839844 4.09375 19.890625 4.132812 19.941406 4.171875 C 20.617188 4.703125 21.242188 5.25 21.785156 5.914062 C 21.875 6.023438 21.875 6.023438 21.964844 6.132812 C 22.917969 7.328125 23.980469 8.953125 23.980469 10.523438 C 23.398438 10.523438 22.820312 10.523438 22.222656 10.523438 C 22.117188 10.21875 22.117188 10.21875 22.007812 9.914062 C 21.589844 8.78125 21 7.777344 20.203125 6.871094 C 20.136719 6.785156 20.066406 6.699219 20 6.613281 C 19.757812 6.328125 19.488281 6.105469 19.191406 5.878906 C 19.121094 5.824219 19.121094 5.824219 19.050781 5.765625 C 18.519531 5.359375 17.972656 5.050781 17.390625 4.695312 C 17.390625 7.164062 17.390625 9.632812 17.390625 12.175781 C 17.941406 12.175781 18.492188 12.175781 19.0625 12.175781 C 19.0625 10.882812 19.0625 9.589844 19.0625 8.261719 C 19.117188 8.261719 19.175781 8.261719 19.238281 8.261719 C 19.359375 8.421875 19.476562 8.585938 19.585938 8.753906 C 19.648438 8.847656 19.710938 8.9375 19.773438 9.035156 C 19.917969 9.265625 20.019531 9.484375 20.113281 9.738281 C 20.167969 9.835938 20.222656 9.929688 20.28125 10.027344 C 20.464844 10.386719 20.566406 10.757812 20.664062 11.148438 C 20.679688 11.207031 20.695312 11.265625 20.710938 11.328125 C 20.789062 11.65625 20.816406 11.921875 20.816406 12.261719 C 21.976562 12.261719 23.136719 12.261719 24.332031 12.261719 C 24.332031 12.835938 24.332031 13.410156 24.332031 14 C 23.144531 14 21.953125 14 20.730469 14 C 20.699219 14.371094 20.671875 14.746094 20.640625 15.128906 C 20.367188 16.160156 19.914062 17.070312 19.148438 17.824219 C 19.148438 16.535156 19.148438 15.242188 19.148438 13.914062 C 18.570312 13.914062 17.988281 13.914062 17.390625 13.914062 C 17.390625 16.410156 17.390625 18.90625 17.390625 21.476562 C 18.335938 20.894531 19.09375 20.414062 19.851562 19.652344 C 19.921875 19.582031 19.992188 19.511719 20.066406 19.4375 C 21.066406 18.394531 21.699219 17.097656 22.136719 15.738281 C 22.222656 15.652344 22.222656 15.652344 22.402344 15.640625 C 22.480469 15.644531 22.554688 15.644531 22.636719 15.644531 C 22.71875 15.644531 22.800781 15.644531 22.886719 15.644531 C 22.972656 15.644531 23.0625 15.644531 23.152344 15.648438 C 23.238281 15.648438 23.324219 15.648438 23.417969 15.648438 C 23.632812 15.648438 23.851562 15.648438 24.066406 15.652344 C 23.65625 17.613281 22.648438 19.484375 21.167969 20.871094 C 21.105469 20.933594 21.042969 21 20.976562 21.066406 C 19.816406 22.1875 18.605469 22.925781 17.128906 23.566406 C 17.039062 23.605469 16.953125 23.644531 16.859375 23.683594 C 16.425781 23.863281 16.125 23.929688 15.636719 24 C 15.636719 20.671875 15.636719 17.34375 15.636719 13.914062 C 15.054688 13.914062 14.476562 13.914062 13.878906 13.914062 C 13.878906 17.355469 13.878906 20.800781 13.878906 24.347656 C 13.296875 24.347656 12.71875 24.347656 12.121094 24.347656 C 12.121094 20.90625 12.121094 17.460938 12.121094 13.914062 C 11.542969 13.914062 10.960938 13.914062 10.363281 13.914062 C 10.363281 17.242188 10.363281 20.570312 10.363281 24 C 7.757812 23.425781 5.574219 22.015625 3.953125 19.914062 C 3.863281 19.800781 3.863281 19.800781 3.773438 19.6875 C 2.828125 18.476562 2.351562 17.109375 1.933594 15.652344 C 2.542969 15.652344 3.148438 15.652344 3.777344 15.652344 C 3.835938 15.8125 3.898438 15.976562 3.957031 16.140625 C 4.515625 17.566406 5.269531 18.714844 6.324219 19.824219 C 6.398438 19.902344 6.46875 19.980469 6.542969 20.058594 C 7.203125 20.664062 7.921875 21.09375 8.695312 21.566406 C 8.695312 19.039062 8.695312 16.515625 8.695312 13.914062 C 8.117188 13.914062 7.535156 13.914062 6.9375 13.914062 C 6.9375 15.261719 6.9375 16.609375 6.9375 18 C 6.554688 17.621094 6.328125 17.242188 6.0625 16.78125 C 6 16.6875 5.9375 16.59375 5.875 16.496094 C 5.554688 15.941406 5.324219 15.246094 5.359375 14.609375 C 5.300781 14.609375 5.242188 14.609375 5.183594 14.609375 C 5.183594 14.40625 5.183594 14.207031 5.183594 14 C 4.023438 14 2.863281 14 1.667969 14 C 1.667969 13.425781 1.667969 12.851562 1.667969 12.261719 C 2.828125 12.261719 3.988281 12.261719 5.183594 12.261719 C 5.210938 11.972656 5.242188 11.6875 5.269531 11.390625 C 5.445312 10.625 5.71875 9.929688 6.105469 9.246094 C 6.136719 9.1875 6.167969 9.128906 6.203125 9.070312 C 6.421875 8.699219 6.613281 8.496094 6.9375 8.175781 C 6.9375 9.492188 6.9375 10.8125 6.9375 12.175781 C 7.519531 12.175781 8.097656 12.175781 8.695312 12.175781 C 8.695312 9.675781 8.695312 7.179688 8.695312 4.609375 C 7.769531 5.15625 7.769531 5.15625 6.9375 5.800781 C 6.894531 5.835938 6.847656 5.875 6.800781 5.917969 C 6.511719 6.164062 6.242188 6.425781 5.972656 6.695312 C 5.910156 6.753906 5.851562 6.8125 5.789062 6.875 C 4.839844 7.839844 4.105469 9.21875 3.777344 10.523438 C 3.167969 10.523438 2.558594 10.523438 1.933594 10.523438 C 2.566406 7.695312 4.304688 5.234375 6.761719 3.652344 C 6.863281 3.585938 6.863281 3.585938 6.96875 3.519531 C 7.90625 2.9375 9.234375 2.175781 10.363281 2.175781 C 10.363281 5.503906 10.363281 8.832031 10.363281 12.261719 C 10.945312 12.261719 11.523438 12.261719 12.121094 12.261719 C 12.121094 8.816406 12.121094 5.375 12.121094 1.824219 Z M 12.121094 1.824219 " data-index="1"></path>
<path style=" stroke:none;fill-rule:nonzero;fill:rgb(19.215687%,19.215687%,19.215687%);fill-opacity:1;" d="M 5.886719 4.261719 C 5.941406 4.289062 6 4.316406 6.0625 4.347656 C 5.828125 4.585938 5.597656 4.804688 5.335938 5.011719 C 4.96875 5.3125 4.691406 5.679688 4.402344 6.054688 C 4.226562 6.25 4.109375 6.339844 3.863281 6.433594 C 4.386719 5.582031 5.128906 4.90625 5.886719 4.261719 Z M 5.886719 4.261719 " data-index="2"></path>
<path style=" stroke:none;fill-rule:nonzero;fill:rgb(21.176471%,21.176471%,21.176471%);fill-opacity:1;" d="M 18.621094 20.695312 C 18.679688 20.722656 18.738281 20.753906 18.796875 20.78125 C 18.648438 21 18.648438 21 18.445312 21.21875 C 18.203125 21.246094 18.203125 21.246094 18.007812 21.21875 C 18.203125 21.015625 18.382812 20.851562 18.621094 20.695312 Z M 18.621094 20.695312 " data-index="3"></path>
</g>
</svg>